frame:0    pts:0       pts_time:0
lavfi.scene_score=0.000000
frame:1    pts:16128   pts_time:1.05
lavfi.scene_score=0.116383
frame:2    pts:23808   pts_time:1.55
lavfi.scene_score=0.050732
frame:3    pts:34304   pts_time:2.233333
lavfi.scene_score=0.057720
frame:4    pts:37632   pts_time:2.45
lavfi.scene_score=0.121196
frame:5    pts:63232   pts_time:4.116667
lavfi.scene_score=0.121371
frame:6    pts:65280   pts_time:4.25
lavfi.scene_score=0.294802
frame:7    pts:84480   pts_time:5.5
lavfi.scene_score=0.497102
frame:8    pts:95488   pts_time:6.216667
lavfi.scene_score=0.262816
frame:9    pts:182016  pts_time:11.85
lavfi.scene_score=0.329524
frame:10   pts:265216  pts_time:17.266667
lavfi.scene_score=0.324411
frame:11   pts:307712  pts_time:20.033333
lavfi.scene_score=0.291421
frame:12   pts:355072  pts_time:23.116667
lavfi.scene_score=0.378419
frame:13   pts:411136  pts_time:26.766667
lavfi.scene_score=0.602333
frame:14   pts:524288  pts_time:34.133333
lavfi.scene_score=0.319153
frame:15   pts:641536  pts_time:41.766667
lavfi.scene_score=0.260818
frame:16   pts:731392  pts_time:47.616667
lavfi.scene_score=0.170763
frame:17   pts:749312  pts_time:48.783333
lavfi.scene_score=0.363542
frame:18   pts:877312  pts_time:57.116667
lavfi.scene_score=0.396505
frame:19   pts:1000448 pts_time:65.133333
lavfi.scene_score=0.298991
frame:20   pts:1042944 pts_time:67.9
lavfi.scene_score=0.262575
frame:21   pts:1126656 pts_time:73.35
lavfi.scene_score=0.117438
frame:22   pts:1135360 pts_time:73.916667
lavfi.scene_score=0.186649
frame:23   pts:1197824 pts_time:77.983333
lavfi.scene_score=0.311461
frame:24   pts:1330688 pts_time:86.633333
lavfi.scene_score=0.287080
frame:25   pts:1444608 pts_time:94.05
lavfi.scene_score=0.338968
frame:26   pts:1533184 pts_time:99.816667
lavfi.scene_score=0.251873
frame:27   pts:1617664 pts_time:105.316667
lavfi.scene_score=0.277430
frame:28   pts:1653248 pts_time:107.633333
lavfi.scene_score=0.280806
frame:29   pts:1779968 pts_time:115.883333
lavfi.scene_score=0.313931
frame:30   pts:1816832 pts_time:118.283333
lavfi.scene_score=0.266295
frame:31   pts:1892864 pts_time:123.233333
lavfi.scene_score=0.216157
frame:32   pts:1957120 pts_time:127.416667
lavfi.scene_score=0.251801
frame:33   pts:2050304 pts_time:133.483333
lavfi.scene_score=0.219083
frame:34   pts:2178560 pts_time:141.833333
lavfi.scene_score=0.249966
frame:35   pts:2229760 pts_time:145.166667
lavfi.scene_score=0.253419
frame:36   pts:2273280 pts_time:148
lavfi.scene_score=0.242007
frame:37   pts:2340352 pts_time:152.366667
lavfi.scene_score=0.249978
frame:38   pts:2453504 pts_time:159.733333
lavfi.scene_score=0.198049
frame:39   pts:2576896 pts_time:167.766667
lavfi.scene_score=0.348207
frame:40   pts:2648832 pts_time:172.45
lavfi.scene_score=0.368987
frame:41   pts:2761216 pts_time:179.766667
lavfi.scene_score=0.250442
frame:42   pts:2909184 pts_time:189.4
lavfi.scene_score=0.259243
frame:43   pts:2989312 pts_time:194.616667
lavfi.scene_score=0.275815
frame:44   pts:3115264 pts_time:202.816667
lavfi.scene_score=0.403722
frame:45   pts:3172352 pts_time:206.533333
lavfi.scene_score=0.415943
frame:46   pts:3297792 pts_time:214.7
lavfi.scene_score=0.273658
frame:47   pts:3439104 pts_time:223.9
lavfi.scene_score=0.312759
frame:48   pts:3500544 pts_time:227.9
lavfi.scene_score=0.221692
frame:49   pts:3549696 pts_time:231.1
lavfi.scene_score=0.207008
frame:50   pts:3583744 pts_time:233.316667
lavfi.scene_score=0.267344
frame:51   pts:3664896 pts_time:238.6
lavfi.scene_score=0.163475
frame:52   pts:3683072 pts_time:239.783333
lavfi.scene_score=0.213959
frame:53   pts:3712512 pts_time:241.7
lavfi.scene_score=0.325782
frame:54   pts:3810816 pts_time:248.1
lavfi.scene_score=0.249658
frame:55   pts:3941376 pts_time:256.6
lavfi.scene_score=0.230882
frame:56   pts:4066304 pts_time:264.733333
lavfi.scene_score=0.227967
frame:57   pts:4156928 pts_time:270.633333
lavfi.scene_score=0.317360
frame:58   pts:4226816 pts_time:275.183333
lavfi.scene_score=0.342710
frame:59   pts:4288512 pts_time:279.2
lavfi.scene_score=0.278219
frame:60   pts:4376832 pts_time:284.95
lavfi.scene_score=0.354056
frame:61   pts:4431104 pts_time:288.483333
lavfi.scene_score=0.275372
frame:62   pts:4444928 pts_time:289.383333
lavfi.scene_score=0.172778
frame:63   pts:4482048 pts_time:291.8
lavfi.scene_score=0.250532
frame:64   pts:4571648 pts_time:297.633333
lavfi.scene_score=0.192533
frame:65   pts:4651008 pts_time:302.8
lavfi.scene_score=0.186945
frame:66   pts:4681728 pts_time:304.8
lavfi.scene_score=0.243130
frame:67   pts:4777216 pts_time:311.016667
lavfi.scene_score=0.226336
frame:68   pts:4851712 pts_time:315.866667
lavfi.scene_score=0.182868
frame:69   pts:4946176 pts_time:322.016667
lavfi.scene_score=0.230661
frame:70   pts:5001472 pts_time:325.616667
lavfi.scene_score=0.251267
frame:71   pts:5108736 pts_time:332.6
lavfi.scene_score=0.320591
frame:72   pts:5132288 pts_time:334.133333
lavfi.scene_score=0.320839
frame:73   pts:5252608 pts_time:341.966667
lavfi.scene_score=0.267338
frame:74   pts:5391104 pts_time:350.983333
lavfi.scene_score=0.237163
frame:75   pts:5498624 pts_time:357.983333
lavfi.scene_score=0.206571
frame:76   pts:5506048 pts_time:358.466667
lavfi.scene_score=0.224773
frame:77   pts:5635584 pts_time:366.9
lavfi.scene_score=0.262602
frame:78   pts:5657856 pts_time:368.35
lavfi.scene_score=0.396174
frame:79   pts:5734144 pts_time:373.316667
lavfi.scene_score=0.233144
frame:80   pts:5766656 pts_time:375.433333
lavfi.scene_score=0.358558
frame:81   pts:5826560 pts_time:379.333333
lavfi.scene_score=0.331503
frame:82   pts:5931776 pts_time:386.183333
lavfi.scene_score=0.293658
frame:83   pts:6059776 pts_time:394.516667
lavfi.scene_score=0.250722
frame:84   pts:6152192 pts_time:400.533333
lavfi.scene_score=0.203553
frame:85   pts:6236928 pts_time:406.05
lavfi.scene_score=0.299852
frame:86   pts:6281216 pts_time:408.933333
lavfi.scene_score=0.389891
frame:87   pts:6418176 pts_time:417.85
lavfi.scene_score=0.232884
frame:88   pts:6446080 pts_time:419.666667
lavfi.scene_score=0.191899
frame:89   pts:6497536 pts_time:423.016667
lavfi.scene_score=0.336467
frame:90   pts:6582016 pts_time:428.516667
lavfi.scene_score=0.316752
frame:91   pts:6680832 pts_time:434.95
lavfi.scene_score=0.443579
frame:92   pts:6788608 pts_time:441.966667
lavfi.scene_score=0.292284
frame:93   pts:6817792 pts_time:443.866667
lavfi.scene_score=0.246999
frame:94   pts:6893568 pts_time:448.8
lavfi.scene_score=0.311175
frame:95   pts:6931712 pts_time:451.283333
lavfi.scene_score=0.321745
frame:96   pts:7041024 pts_time:458.4
lavfi.scene_score=0.122657
frame:97   pts:7041280 pts_time:458.416667
lavfi.scene_score=0.052172
frame:98   pts:7087104 pts_time:461.4
lavfi.scene_score=0.179732
frame:99   pts:7197696 pts_time:468.6
lavfi.scene_score=0.196535
frame:100  pts:7275008 pts_time:473.633333
lavfi.scene_score=0.216718
frame:101  pts:7318016 pts_time:476.433333
lavfi.scene_score=0.282844
frame:102  pts:7440640 pts_time:484.416667
lavfi.scene_score=0.409762
frame:103  pts:7515904 pts_time:489.316667
lavfi.scene_score=0.255973
frame:104  pts:7577856 pts_time:493.35
lavfi.scene_score=0.277021
frame:105  pts:7730432 pts_time:503.283333
lavfi.scene_score=0.414181
frame:106  pts:7784704 pts_time:506.816667
lavfi.scene_score=0.409639
frame:107  pts:7821824 pts_time:509.233333
lavfi.scene_score=0.051227
frame:108  pts:7945472 pts_time:517.283333
lavfi.scene_score=0.264128
frame:109  pts:8024576 pts_time:522.433333
lavfi.scene_score=0.211562
frame:110  pts:8131328 pts_time:529.383333
lavfi.scene_score=0.179949
frame:111  pts:8146944 pts_time:530.4
lavfi.scene_score=0.213575
frame:112  pts:8276736 pts_time:538.85
lavfi.scene_score=0.235516
frame:113  pts:8293376 pts_time:539.933333
lavfi.scene_score=0.243806
frame:114  pts:8399360 pts_time:546.833333
lavfi.scene_score=0.205633
frame:115  pts:8482048 pts_time:552.216667
lavfi.scene_score=0.156811
frame:116  pts:8528384 pts_time:555.233333
lavfi.scene_score=0.229014
frame:117  pts:8559104 pts_time:557.233333
lavfi.scene_score=0.411953
frame:118  pts:8642304 pts_time:562.65
lavfi.scene_score=0.227856
frame:119  pts:8703232 pts_time:566.616667
lavfi.scene_score=0.261347
frame:120  pts:8809216 pts_time:573.516667
lavfi.scene_score=0.215170
frame:121  pts:8936960 pts_time:581.833333
lavfi.scene_score=0.209036
frame:122  pts:9008640 pts_time:586.5
lavfi.scene_score=0.173747
frame:123  pts:9018368 pts_time:587.133333
lavfi.scene_score=0.222394
frame:124  pts:9062912 pts_time:590.033333
lavfi.scene_score=0.321478
frame:125  pts:9116672 pts_time:593.533333
lavfi.scene_score=0.468145
frame:126  pts:9275136 pts_time:603.85
lavfi.scene_score=0.413629
frame:127  pts:9380864 pts_time:610.733333
lavfi.scene_score=0.276198
frame:128  pts:9459968 pts_time:615.883333
lavfi.scene_score=0.496026
frame:129  pts:9568512 pts_time:622.95
lavfi.scene_score=0.729218
frame:130  pts:9659136 pts_time:628.85
lavfi.scene_score=0.250231
frame:131  pts:9720576 pts_time:632.85
lavfi.scene_score=0.480744
frame:132  pts:9836288 pts_time:640.383333
lavfi.scene_score=0.235332
frame:133  pts:9873920 pts_time:642.833333
lavfi.scene_score=0.138491
frame:134  pts:9886720 pts_time:643.666667
lavfi.scene_score=0.252200
frame:135  pts:10007040 pts_time:651.5
lavfi.scene_score=0.377143
frame:136  pts:10095616 pts_time:657.266667
lavfi.scene_score=0.272245
frame:137  pts:10173440 pts_time:662.333333
lavfi.scene_score=0.396806
frame:138  pts:10258432 pts_time:667.866667
lavfi.scene_score=0.385112
frame:139  pts:10337536 pts_time:673.016667
lavfi.scene_score=0.430157
frame:140  pts:10412800 pts_time:677.916667
lavfi.scene_score=0.338649
frame:141  pts:10554368 pts_time:687.133333
lavfi.scene_score=0.316357
frame:142  pts:10645248 pts_time:693.05
lavfi.scene_score=0.216421
frame:143  pts:10761984 pts_time:700.65
lavfi.scene_score=0.204314
frame:144  pts:10804992 pts_time:703.45
lavfi.scene_score=0.199545
frame:145  pts:10828800 pts_time:705
lavfi.scene_score=0.230678
frame:146  pts:10855680 pts_time:706.75
lavfi.scene_score=0.278820
frame:147  pts:10940672 pts_time:712.283333
lavfi.scene_score=0.466720
frame:148  pts:11098112 pts_time:722.533333
lavfi.scene_score=0.311161
frame:149  pts:11279872 pts_time:734.366667
lavfi.scene_score=0.347950
frame:150  pts:11339776 pts_time:738.266667
lavfi.scene_score=0.341897
frame:151  pts:11385344 pts_time:741.233333
lavfi.scene_score=0.233403
frame:152  pts:11471360 pts_time:746.833333
lavfi.scene_score=0.291452
frame:153  pts:11517440 pts_time:749.833333
lavfi.scene_score=0.277120
frame:154  pts:11614464 pts_time:756.15
lavfi.scene_score=0.314633
frame:155  pts:11760640 pts_time:765.666667
lavfi.scene_score=0.418614
frame:156  pts:11802880 pts_time:768.416667
lavfi.scene_score=0.043794
frame:157  pts:11875072 pts_time:773.116667
lavfi.scene_score=0.420044
frame:158  pts:11990016 pts_time:780.6
lavfi.scene_score=0.222723
frame:159  pts:12059136 pts_time:785.1
lavfi.scene_score=0.200218
frame:160  pts:12083200 pts_time:786.666667
lavfi.scene_score=0.130149
frame:161  pts:12099584 pts_time:787.733333
lavfi.scene_score=0.083712
frame:162  pts:12110336 pts_time:788.433333
lavfi.scene_score=0.054329
frame:163  pts:12114176 pts_time:788.683333
lavfi.scene_score=0.048462
frame:164  pts:12114432 pts_time:788.7
lavfi.scene_score=0.067754
